<?xml version="1.0" encoding="UTF-8"?>
<svg width="28px" height="25px" viewBox="0 0 28 25" version="1.1" xmlns="http://www.w3.org/2000/svg" xmlns:xlink="http://www.w3.org/1999/xlink">
    <!-- Generator: Sketch 60 (88103) - https://sketch.com -->
    <title>sketch-symbol</title>
    <desc>Created with Sketch.</desc>
    <g id="Page-1" stroke="none" stroke-width="1" fill="none" fill-rule="evenodd">
        <g id="Desktop-HD" transform="translate(-438.000000, -1558.000000)" fill-rule="nonzero">
            <g id="sketch-symbol" transform="translate(438.000000, 1558.000000)">
                <polygon id="Path" fill="#FDB300" points="6.10909094 0.823102681 14 0 21.8909091 0.823102681 28 8.91462053 14 25 0 8.91462053"></polygon>
                <g id="Group" transform="translate(0.000000, 8.000000)">
                    <polygon id="Path" fill="#EA6C00" points="5.65926904 0 13.9717868 16.9956943 0 0"></polygon>
                    <polygon id="Path" fill="#EA6C00" transform="translate(20.957642, 8.497847) scale(-1, 1) translate(-20.957642, -8.497847) " points="19.631018 0 27.9435358 16.9956943 13.971749 0"></polygon>
                    <polygon id="Path" fill="#FDAD00" points="5.65926904 0 22.2843046 0 13.9717868 16.9956943"></polygon>
                </g>
                <g id="Group">
                    <polygon id="Path" fill="#FDD231" points="13.9717868 0 6.09675127 0.737952756 5.65926904 7.99250394"></polygon>
                    <polygon id="Path" fill="#FDD231" transform="translate(18.128003, 3.996252) scale(-1, 1) translate(-18.128003, -3.996252) " points="22.2842616 0 14.4092261 0.737952756 13.9717439 7.99250394"></polygon>
                    <polygon id="Path" fill="#FDAD00" transform="translate(24.895160, 4.365228) scale(-1, 1) translate(-24.895160, -4.365228) " points="21.846749 7.99250394 27.9435713 0.737952756 27.506018 7.99250394"></polygon>
                    <polygon id="Path" fill="#FDAD00" points="0 7.99250394 6.09675127 0.737952756 5.65926904 7.99250394"></polygon>
                    <polygon id="Path" fill="#FEEEB7" points="13.9717868 0 5.65926904 7.99250394 22.2843046 7.99250394"></polygon>
                </g>
            </g>
        </g>
    </g>
</svg>